{"title":"Salt.Directors.Cut.2010.720p.BRRip.H264.Feel-Free","uid":5953758,"size":1701566094,"categoryP":"video","categoryS":"hd___movies","magnet":"?xt=urn:btih:3cf14ef342b41203a4c41f23eb81bc8f91314f41&amp;dn=Salt.Directors.Cut.2010.720p.BRRip.H264.Feel-Free&amp;tr=udp%3A%2F%2Ftracker.openbittorrent.com%3A80&amp;tr=udp%3A%2F%2Fopen.demonii.com%3A1337&amp;tr=udp%3A%2F%2Ftracker.coppersurfer.tk%3A6969&amp;tr=udp%3A%2F%2Fexodus.desync.com%3A6969","seeders":0,"leechers":0,"uploader":"deffjam555","files":11,"time":1289630683,"description":"Genre:Action | Thriller\nLanguage:English\nIMDb:http://www.imdb.com/title/tt0944835/\nSOURCE:720p.BluRay.DTS.x264\n\nGeneral\nComplete name :Salt.Directors.Cut.2010.720p.BRRip.H264.Feel-Free\nFormat : MPEG-4\nFormat profile : Base Media\nCodec ID : mp42\nFile size : 1.58 GiB\nDuration : 1h 44mn\nOverall bit rate : 2 173 Kbps\nVideo #1\nCodec ID : avc1\nCodec ID/Info : Advanced Video Coding\nDuration : 1h 44mn\nBit rate mode : Variable\nBit rate : 1 692 Kbps\nWidth : 1 280 pixels\nHeight : 534 pixels\nDisplay aspect ratio : 2.35:1\nFrame rate mode : Constant\nFrame rate : 23.976 fps\nResolution : 24 bits\nColorimetry : 4:2:0\nScan type : Progressive\nBits/(Pixel*Frame) : 0.103\nStream size : 1.23 GiB (78%)\nAudio #2\nID : 2\nFormat : AAC\nFormat/Info : Advanced Audio Codec\nFormat version : Version 4\nFormat profile : LC\nFormat settings, SBR : No\nCodec ID : 40\nDuration : 1h 44mn\nBit rate mode : Constant\nBit rate : 477 Kbps\nNominal bit rate : 480 Kbps\nChannel(s) : 6 channels\nChannel positions : Front: L C R, Rear: L R, LFE\nSampling rate : 48.0 KHz\nResolution : 16 bits\nStream size : 355 MiB (22%)\n\nPlot:\nAs a CIA officer, Evelyn Salt swore an oath to duty, honor and country. Her loyalty will be tested when a defector accuses her of being a Russian spy\n\nTRAILER:\n[embed=youtube]http://www.youtube.com/watch?v=QZ40WlshNwU&amp;feature=player_embedded[/embed]\n\nscreens\n &lt;a href=&quot;\nhttp://www.rapidhdd.com/images/825191vlcsnap-2010-11-13-07h14m25s22.png&quot; rel=&quot;nofollow&quot; target=&quot;_NEW&quot;&gt;\nhttp://www.rapidhdd.com/images/825191vlcsnap-2010-11-13-07h14m25s22.png&lt;/a&gt; &lt;a href=&quot;\nhttp://www.rapidhdd.com/images/317178vlcsnap-2010-11-13-07h14m39s149.png&quot; rel=&quot;nofollow&quot; target=&quot;_NEW&quot;&gt;\nhttp://www.rapidhdd.com/images/317178vlcsnap-2010-11-13-07h14m39s149.png&lt;/a&gt; &lt;a href=&quot;\nhttp://www.rapidhdd.com/images/383456vlcsnap-2010-11-13-07h14m49s8.png&quot; rel=&quot;nofollow&quot; target=&quot;_NEW&quot;&gt;\nhttp://www.rapidhdd.com/images/383456vlcsnap-2010-11-13-07h14m49s8.png&lt;/a&gt; &lt;a href=&quot;\nhttp://www.rapidhdd.com/images/383456vlcsnap-2010-11-13-07h14m49s8.png&quot; rel=&quot;nofollow&quot; target=&quot;_NEW&quot;&gt;\nhttp://www.rapidhdd.com/images/383456vlcsnap-2010-11-13-07h14m49s8.png&lt;/a&gt; &lt;a href=&quot;\nhttp://www.rapidhdd.com/images/515018vlcsnap-2010-11-13-07h15m55s156.png&quot; rel=&quot;nofollow&quot; target=&quot;_NEW&quot;&gt;\nhttp://www.rapidhdd.com/images/515018vlcsnap-2010-11-13-07h15m55s156.png&lt;/a&gt; &lt;a href=&quot;\nhttp://www.rapidhdd.com/images/816843vlcsnap-2010-11-13-07h16m35s55.png&quot; rel=&quot;nofollow&quot; target=&quot;_NEW&quot;&gt;\nhttp://www.rapidhdd.com/images/816843vlcsnap-2010-11-13-07h16m35s55.png&lt;/a&gt; &lt;a href=&quot;\nhttp://www.rapidhdd.com/images/739029vlcsnap-2010-11-13-07h25m12s86.png&quot; rel=&quot;nofollow&quot; target=&quot;_NEW&quot;&gt;\nhttp://www.rapidhdd.com/images/739029vlcsnap-2010-11-13-07h25m12s86.png&lt;/a&gt;","torrent":{"xt":"urn:btih:3cf14ef342b41203a4c41f23eb81bc8f91314f41","amp;dn":"Salt.Directors.Cut.2010.720p.BRRip.H264.Feel-Free","amp;tr":["udp%3A%2F%2Ftracker.openbittorrent.com%3A80","udp%3A%2F%2Fopen.demonii.com%3A1337","udp%3A%2F%2Ftracker.coppersurfer.tk%3A6969","udp%3A%2F%2Fexodus.desync.com%3A6969"],"infoHash":"3cf14ef342b41203a4c41f23eb81bc8f91314f41","infoHashBuffer":{"type":"Buffer","data":[60,241,78,243,66,180,18,3,164,196,31,35,235,129,188,143,145,49,79,65]},"announce":[],"urlList":[]}}